<?xml version="1.0" ?><!DOCTYPE svg  PUBLIC '-//W3C//DTD SVG 1.1//EN'  'http://www.w3.org/Graphics/SVG/1.1/DTD/svg11.dtd'><svg height="8.4666mm" style="shape-rendering:geometricPrecision; text-rendering:geometricPrecision; image-rendering:optimizeQuality; fill-rule:evenodd; clip-rule:evenodd" version="1.1" viewBox="0 0 846.66 846.66" width="8.4666mm" xml:space="preserve" xmlns="http://www.w3.org/2000/svg" xmlns:xlink="http://www.w3.org/1999/xlink"><defs><style type="text/css">
   <![CDATA[
    .fil0 {fill:black;fill-rule:nonzero}
   ]]>
  </style></defs><g id="Layer_x0020_1"><path class="fil0" d="M388.81 141.03c46.75,12.3 75.83,32.59 76.35,58l0.02 178.86c-0.58,34.51 -49.35,51.6 -76.37,58.71 -86.02,22.63 -218.48,22.63 -304.5,0 -46.75,-12.3 -75.82,-32.6 -76.35,-58l0 -179.57c0.53,-25.41 29.6,-45.7 76.35,-58 86.02,-22.64 218.48,-22.64 304.5,0zm218.32 116.55c-15.44,-22.36 18.61,-45.87 34.05,-23.51l17.37 25.24 70.06 -83.82c17.46,-20.88 49.24,5.71 31.77,26.59l-87.54 104.69c-8.7,10.4 -25.07,9.8 -32.89,-1.52l-32.82 -47.67zm77.19 -170.82c85.26,0 154.38,69.12 154.38,154.38 0,85.26 -69.12,154.38 -154.38,154.38 -85.25,0 -154.37,-69.12 -154.37,-154.38 0,-85.26 69.12,-154.38 154.37,-154.38zm0 41.5c-62.34,0 -112.87,50.54 -112.87,112.88 0,62.34 50.53,112.87 112.87,112.87 62.34,0 112.88,-50.53 112.88,-112.87 0,-62.34 -50.54,-112.88 -112.88,-112.88zm14.42 555.96l0 -42.53c-10.08,4.63 -21.78,8.71 -34.86,12.15 -86.02,22.63 -218.48,22.63 -304.5,0 -13.08,-3.44 -24.78,-7.52 -34.86,-12.15l0 42.53c0,4.47 17.35,11.28 45.4,18.66 78.71,20.71 204.71,20.71 283.42,0 28.05,-7.38 45.4,-14.19 45.4,-18.66zm0 -89.08l0 -42.53c-10.08,4.63 -21.78,8.7 -34.86,12.14 -86,22.64 -218.5,22.64 -304.5,0 -13.09,-3.44 -24.78,-7.51 -34.86,-12.14l0 42.53c0,4.47 17.35,11.27 45.4,18.65 78.71,20.72 204.71,20.72 283.42,0 28.05,-7.38 45.4,-14.18 45.4,-18.65zm41.5 89.08c-0.58,34.51 -49.35,51.59 -76.36,58.7 -86.02,22.63 -218.48,22.63 -304.5,0 -27.01,-7.11 -75.78,-24.19 -76.36,-58.7l0.01 -178.87c0.52,-25.4 29.6,-45.7 76.35,-58 86.02,-22.63 218.48,-22.63 304.5,0 46.75,12.3 75.83,32.6 76.35,58l0.01 178.87zm-86.9 -196.82c-78.71,-20.72 -204.71,-20.72 -283.42,0 -28.05,7.38 -45.4,14.18 -45.4,18.65 0,4.47 17.35,11.28 45.4,18.66 78.69,20.71 204.73,20.71 283.42,0 28.05,-7.38 45.4,-14.19 45.4,-18.66 0,-4.47 -17.35,-11.27 -45.4,-18.65zm-229.67 -241.12c-10.07,4.64 -21.77,8.7 -34.86,12.15 -85.99,22.63 -218.5,22.63 -304.5,0 -13.08,-3.45 -24.78,-7.51 -34.86,-12.15l0 42.53c0,4.47 17.35,11.28 45.4,18.66 78.71,20.71 204.72,20.71 283.42,0 28.05,-7.38 45.4,-14.19 45.4,-18.66l0 -42.53zm0 89.09c-10.07,4.63 -21.77,8.7 -34.86,12.14 -86.02,22.64 -218.48,22.64 -304.5,0 -13.08,-3.44 -24.78,-7.51 -34.86,-12.14l0 42.52c0,4.48 17.35,11.28 45.4,18.66 78.71,20.72 204.72,20.72 283.42,0 28.05,-7.38 45.4,-14.18 45.4,-18.66l0 -42.52zm-45.4 -154.3c-78.7,-20.71 -204.71,-20.71 -283.42,0 -28.05,7.38 -45.4,14.18 -45.4,18.66 0,4.47 17.35,11.27 45.4,18.65 78.69,20.72 204.73,20.72 283.43,0 28.04,-7.38 45.39,-14.18 45.39,-18.65 0,-4.48 -17.35,-11.28 -45.4,-18.66z"/></g></svg>