<?xml version="1.0" encoding="utf-8"?>
<!-- Generator: Adobe Illustrator 17.1.0, SVG Export Plug-In . SVG Version: 6.00 Build 0)  -->
<!DOCTYPE svg PUBLIC "-//W3C//DTD SVG 1.1//EN" "http://www.w3.org/Graphics/SVG/1.1/DTD/svg11.dtd">
<svg version="1.1" id="telephone-support" xmlns="http://www.w3.org/2000/svg" xmlns:xlink="http://www.w3.org/1999/xlink" x="0px"
	 y="0px" viewBox="0 0 1010.0004 859.8921" enable-background="new 0 0 1010.0004 859.8921" xml:space="preserve">
<g>
	<g id="telephone-support-telephone-support">
		<g>
			<path fill="#5C524C" d="M17.9193,859.8921c-1.6972,0-3.4292-0.2442-5.1435-0.752c-9.4824-2.8525-14.853-12.8408-12.0191-22.3066
				l36.5645-121.9531c2.9731-9.9727,11.9658-16.708,22.375-16.7432c0.0352,0,0.0522,0,0.0703,0
				c10.4087,0,19.4185,6.6836,22.4624,16.6553l19.4365,64.8174l19.419-64.7481c2.9741-9.9541,11.9668-16.6894,22.3931-16.7245
				c0.0351,0,0.0527,0,0.0703,0c10.4091,0,19.4365,6.6836,22.4804,16.6553l19.4185,64.8174l19.4018-64.7295
				c3.0621-10.0596,12.0889-16.7432,22.4981-16.7432c0.0698,0,0.1396,0,0.2275,0c10.4615,0.1045,19.4014,6.9277,22.2705,16.9707
				l19.3838,64.5195l19.4195-64.7656c2.9731-9.9883,12.0185-16.7245,22.4624-16.7245c10.4448,0,19.4887,6.7363,22.4633,16.7598
				l19.4366,64.7656l19.436-64.8008c2.8867-9.8838,11.8613-16.6533,22.2881-16.7245c10.1118,0.4199,19.5586,6.6299,22.6206,16.6553
				l12.6484,42.1435c12.0191,40.1504,48.2852,67.127,90.2188,67.127c35.9883,0,81.0888-9.499,91.6543-54.7061
				c2.2402-9.6386,11.914-15.6396,21.5176-13.3652c9.6396,2.2393,15.623,11.8789,13.3662,21.5195
				c-12.4024,53.1123-57.3457,82.3809-126.5381,82.3809c-57.8887,0-107.9404-37.2461-124.5435-92.6514l-0.769-2.5713
				l-19.419,64.7471c-2.9741,9.9902-12.019,16.7422-22.4804,16.7422c-10.4619,0-19.5069-6.752-22.4981-16.794l-19.4018-64.6777
				l-19.419,64.7295c-2.9736,9.9902-12.001,16.7422-22.4629,16.7422c-10.4619,0-19.4892-6.752-22.4805-16.794l-19.419-64.6777
				l-19.4018,64.7295c-2.9732,9.9902-12.0186,16.7422-22.4805,16.7422c-10.4614,0-19.5059-6.752-22.4971-16.794l-19.3847-64.7138
				l-19.4361,64.7656c-2.9746,9.9902-12.0019,16.7422-22.4634,16.7422c-10.4619,0-19.4887-6.752-22.4804-16.794l-19.4014-64.6611
				l-24.7021,82.417C32.7543,854.8716,25.6342,859.8921,17.9193,859.8921L17.9193,859.8921z"/>
		</g>
		<g>
			<path fill="#5C524C" d="M626.0307,780.0464L626.0307,780.0464c-63.3487,0-178.4102-39.5723-366.9317-228.0928
				C-30.2608,262.6279,21.3661,148.4409,56.9848,112.7695l64.0825-64.0473c14.7305-14.7134,34.3066-22.813,55.0898-22.813
				c24.2832,0,46.711,10.9863,61.5635,30.1606l78.0259,100.209c22.1304,28.3584,21.9727,67.9307-0.4023,96.2022l-17.5293,22.2705
				c-13.2789,16.7949-11.8794,40.8325,3.2368,55.9658l179.2837,179.3359c14.7129,14.6602,39.6259,16.1475,56.0166,3.2197
				l22.2363-17.582c27.2734-21.5889,68.8408-21.6933,96.2559-0.3506l100.2421,78.0264
				c17.6182,13.6973,28.5166,34.3418,29.917,56.6299c1.3985,22.3222-6.8769,44.208-22.6728,60.041l-64.0469,64.0117
				C686.4213,765.9116,664.2543,780.0464,626.0307,780.0464L626.0307,780.0464z M176.1571,61.7378
				c-11.2314,0-21.7983,4.3916-29.7583,12.334L82.3339,138.102C39.35,181.1206,66.4843,308.7085,284.4311,526.6206
				c189.3266,189.3271,295.29,217.5977,341.5996,217.5977l0,0c25.9609,0,39.834-8.4327,46.9199-15.501l64.0293-64.0117
				c8.5391-8.5547,13.0156-20.3809,12.2627-32.4698c-0.752-12.0537-6.6465-23.1982-16.1631-30.5986l-100.2441-78.0255
				c-14.9579-11.6523-37.1768-11.5459-52.0293,0.1738l-22.252,17.6006c-13.7334,10.8282-30.9141,16.795-48.3906,16.795
				c-20.836,0-40.4121-8.0831-55.1426-22.7784l-179.3017-179.354c-27.9737-27.9741-30.5635-72.4624-6.0362-103.4804l17.5303-22.2881
				c12.1235-15.3076,12.228-36.6685,0.2793-51.9761L209.4145,78.0425C201.3847,67.6689,189.2782,61.7378,176.1571,61.7378
				L176.1571,61.7378z"/>
		</g>
		<g>
			<g>
				<g>
					<path fill="#5C524C" d="M650.9779,454.5083c-2.1709,0-4.3574-0.4023-6.456-1.207c-6.9102-2.6778-11.459-9.3067-11.459-16.7071
						v-67.372h-51.8535c-31.2813,0-56.7178-25.4195-56.7178-56.6646V56.6821C524.4916,25.9443,550.4701,0,581.2094,0h372.0732
						c31.2813,0,56.7178,25.4194,56.7178,56.6821v255.8755c0,31.2451-25.4365,56.6646-56.7178,56.6646H736.4369l-72.1982,79.4257
						C660.7729,452.4429,655.9272,454.5083,650.9779,454.5083L650.9779,454.5083z M581.2094,35.8281
						c-11.126,0-20.8897,9.7447-20.8897,20.854v255.8755c0,11.2837,9.5703,20.836,20.8897,20.836h69.7685
						c9.9014,0,17.9131,8.0126,17.9131,17.9145v38.9424l46.3615-50.9966c3.3934-3.7436,8.206-5.8603,13.2607-5.8603h224.7695
						c11.3194,0,20.8897-9.5523,20.8897-20.836V56.6821c0-11.3017-9.5703-20.854-20.8897-20.854H581.2094L581.2094,35.8281z"/>
				</g>
			</g>
			<g>
				<path fill="#5C524C" d="M697.0922,147.7759c0,13.436-9.8496,27.5893-23.459,41.5498l-27.7646,29.0058h55.5293v23.6353h-92.2325
					v-19.3491l45.3096-47.9702c7.6992-7.8897,13.0693-16.6548,13.0693-22.7427c0-7.8721-6.0888-12.5435-16.4628-12.5435
					c-10.3916,0-23.1094,6.0884-34.2198,15.7622l-10.917-21.1333c15.2227-11.6338,31.876-18.6137,49.2491-18.6137
					C679.7201,115.3765,697.0922,128.0952,697.0922,147.7759z"/>
				<path fill="#5C524C" d="M774.6635,190.7607V163.189h26.3301v27.5717h17.372v22.9175h-17.372v28.2886h-26.3301v-28.2886h-59.6201
					v-20.0664l40.6552-76.9761h27.2217l-38.3291,74.125H774.6635z"/>
				<path fill="#5C524C" d="M933.724,181.4531v60.5137h-27.5713V189.501c0-12.1768-7.1738-19.6992-18.9824-19.6992
					c-13.7851,0.1923-22.2002,10.5669-22.2002,24.7197v47.4453h-27.5703V109.1133h27.5703v53.5337
					c6.8057-12.0015,18.2647-17.9146,33.3106-18.0899C919.9379,144.5571,933.724,158.8853,933.724,181.4531z"/>
			</g>
		</g>
	</g>
</g>
</svg>
