<svg version="1.1" id="Layer_1" xmlns="http://www.w3.org/2000/svg" xmlns:xlink="http://www.w3.org/1999/xlink" x="0px" y="0px"
	 width="100%" viewBox="0 0 1024 1024" enable-background="new 0 0 1024 1024" xml:space="preserve">
<path fill="#000000" opacity="1.000000" stroke="none" 
	d="
M558.255859,427.963074 
	C558.950317,429.705383 559.657288,431.058472 560.016541,432.498352 
	C560.776978,435.546326 562.479675,436.637421 565.720154,436.724579 
	C589.812622,437.372498 607.592102,456.216858 607.328186,480.587341 
	C607.087830,502.781128 588.118896,521.140869 564.992004,521.219849 
	C529.677734,521.340515 494.362427,521.337952 459.048218,521.210144 
	C437.469421,521.132019 420.956390,505.281281 419.381592,483.528351 
	C417.950836,463.764404 432.363617,446.103851 452.769897,442.689606 
	C455.198059,442.283325 457.196320,441.854828 457.736145,438.824280 
	C461.754730,416.264862 481.325104,399.302155 504.062744,396.835236 
	C527.118042,394.333832 546.891785,405.793701 558.255859,427.963074 
M448.132660,504.502563 
	C451.369904,505.895325 454.690796,506.829468 458.270081,506.827759 
	C494.238068,506.810883 530.207642,507.029419 566.173462,506.751770 
	C585.736267,506.600769 598.512085,486.440765 591.026062,468.351349 
	C585.920959,456.015320 575.059265,450.006622 559.838379,451.098358 
	C551.654419,451.685394 549.307434,449.970520 547.731873,442.149170 
	C543.601685,421.645782 526.007935,409.791412 508.833649,410.776581 
	C486.687866,412.046967 472.474609,426.643585 471.298553,447.921234 
	C470.967407,453.912506 467.609222,456.867218 461.541565,456.505981 
	C448.780426,455.746216 437.894165,462.890900 434.513123,474.244720 
	C430.957916,486.183441 435.945526,497.708466 448.132660,504.502563 
z"/>
<path fill="#000000" opacity="1.000000" stroke="none" 
	d="
M531.777466,566.341980 
	C537.878235,575.011536 535.631836,582.245544 528.319702,588.798706 
	C529.290527,589.563965 529.847351,590.170715 530.535034,590.518860 
	C536.894775,593.738525 538.942200,599.117859 538.347595,605.869202 
	C537.768005,612.449768 533.745483,616.347778 528.081299,618.840698 
	C524.697510,620.329895 521.024658,620.921265 517.364929,620.985962 
	C508.873352,621.136047 500.376831,620.988098 491.883972,621.094421 
	C488.235657,621.140076 486.887665,619.528381 486.906555,615.950073 
	C486.995148,599.128845 486.971283,582.306824 486.916931,565.485291 
	C486.907196,562.475220 487.390259,560.221863 491.121277,560.211609 
	C500.767395,560.184998 510.419403,559.399536 520.052551,560.587524 
	C524.502563,561.136353 528.372009,562.832275 531.777466,566.341980 
M499.299500,599.789001 
	C499.291534,601.776123 499.431641,603.777344 499.243378,605.747253 
	C498.897247,609.369446 500.270264,610.877808 504.023132,610.669983 
	C509.134857,610.386841 514.263977,610.825806 519.368042,609.849976 
	C523.552063,609.049927 525.958862,606.997009 525.915527,602.567810 
	C525.871582,598.071167 523.093262,595.793396 519.107971,595.461914 
	C513.678772,595.010254 508.194092,595.231262 502.733398,595.149963 
	C500.168182,595.111755 499.169983,596.475464 499.299500,599.789001 
M506.603394,584.845520 
	C509.928619,584.775330 513.284363,584.958374 516.570374,584.562439 
	C519.737000,584.180908 522.192810,582.458923 522.747009,578.983887 
	C523.201355,576.134460 522.694885,573.333862 519.797546,572.234558 
	C513.719360,569.928467 507.353027,570.925171 501.075989,571.328674 
	C500.660034,571.355469 500.037262,571.782227 499.912262,572.156921 
	C498.724091,575.719482 498.889526,579.477661 499.643188,582.967346 
	C500.306915,586.040649 503.537598,584.462463 506.603394,584.845520 
z"/>
<path fill="#000000" opacity="1.000000" stroke="none" 
	d="
M376.473907,569.405029 
	C374.693787,571.794617 374.025055,574.528503 371.678497,576.365540 
	C368.176971,574.932251 365.184845,572.373596 361.444244,571.482056 
	C359.828705,571.096985 358.218567,570.616333 356.577332,570.424866 
	C350.923126,569.765564 346.878967,571.575500 346.316956,575.179504 
	C345.477295,580.563782 349.592224,581.861572 353.427551,583.180908 
	C357.985199,584.748718 362.645325,586.029907 367.162140,587.702332 
	C375.256409,590.699585 379.221191,595.855835 379.281372,603.040161 
	C379.340668,610.123474 375.004120,616.974304 367.694427,619.572632 
	C355.152008,624.031006 343.488586,621.534546 332.844666,613.764465 
	C330.638245,612.153809 330.495087,610.375916 332.340759,608.327637 
	C333.562897,606.971375 334.610748,605.459534 335.789276,604.061646 
	C336.090393,603.704590 336.591644,603.516235 337.262360,603.080566 
	C342.903320,607.071411 348.737854,610.911316 356.119141,610.768555 
	C357.613525,610.739685 359.166443,610.838196 360.586578,610.470032 
	C363.573822,609.695618 366.346985,608.452332 366.691345,604.798340 
	C367.042938,601.067688 364.563507,599.401794 361.579712,598.366516 
	C356.712830,596.678101 351.761780,595.232788 346.889923,593.557861 
	C337.603821,590.365295 332.869659,584.464355 333.259857,576.742615 
	C333.684387,568.340820 339.166351,562.116089 348.641571,560.222351 
	C357.221832,558.507507 365.568146,559.766418 373.177216,564.306458 
	C374.858032,565.309265 377.362579,566.148071 376.473907,569.405029 
z"/>
<path fill="#000000" opacity="1.000000" stroke="none" 
	d="
M652.078247,582.988892 
	C652.093018,576.498840 652.287231,570.499756 652.063660,564.516235 
	C651.891968,559.921814 654.185730,558.987305 658.195312,558.928894 
	C662.474854,558.866516 664.235535,560.399231 664.110718,564.742676 
	C663.905151,571.894592 664.002747,579.056702 664.064758,586.213684 
	C664.079956,587.966553 663.590393,589.837891 664.185486,590.724304 
	C668.673157,586.766479 673.339905,582.846436 677.777100,578.681885 
	C682.097961,574.626465 686.735901,573.704163 693.504395,576.522705 
	C689.019531,581.287659 684.934570,586.046631 680.384155,590.308655 
	C677.557861,592.955811 677.621582,594.963196 679.778748,597.879272 
	C684.995178,604.930542 689.973694,612.157837 695.099304,619.386292 
	C688.534058,622.749451 683.270813,621.557556 679.562256,616.354187 
	C676.293152,611.767456 673.004211,607.195007 669.645447,602.506531 
	C664.586365,605.477539 663.241943,609.617188 663.427856,614.871338 
	C663.641113,620.896729 662.895203,621.191895 656.857056,621.140747 
	C653.099609,621.108887 651.958008,619.400513 651.995972,615.914734 
	C652.113708,605.106323 652.063171,594.296021 652.078247,582.988892 
z"/>
<path fill="#000000" opacity="1.000000" stroke="none" 
	d="
M388.705536,564.214783 
	C388.314270,557.871277 392.684875,559.306580 395.922577,559.064819 
	C399.497528,558.797913 400.412811,560.744629 400.364502,564.004089 
	C400.229126,573.132507 400.317352,582.264221 401.377869,592.094727 
	C405.614197,587.839783 410.176422,583.856018 414.001282,579.258728 
	C418.419952,573.947754 423.645294,574.564392 429.789276,575.645203 
	C427.924988,579.944885 424.558472,582.460266 421.919556,585.473755 
	C413.532562,595.051208 413.221191,591.608887 420.793732,602.921082 
	C423.664612,607.209778 426.683380,611.399475 429.549286,615.691345 
	C430.436432,617.019958 431.807373,618.208252 431.507080,620.085388 
	C424.083527,622.758606 420.224731,621.623413 415.906036,615.566101 
	C413.007263,611.500366 410.078217,607.455994 407.142944,603.416504 
	C406.960175,603.165039 406.604370,603.039246 406.182129,602.756592 
	C400.581665,605.022583 399.729675,609.678467 400.342712,614.931030 
	C400.905792,619.755432 398.940491,621.398376 394.138245,621.212952 
	C390.122131,621.057922 388.561066,619.830139 388.605774,615.650574 
	C388.787537,598.664612 388.694061,581.675659 388.705536,564.214783 
z"/>
<path fill="#000000" opacity="1.000000" stroke="none" 
	d="
M586.216614,618.632874 
	C582.064697,622.432983 577.435486,621.906433 574.542542,617.600891 
	C569.053772,620.977600 563.290222,623.112427 556.636719,621.344421 
	C550.557312,619.729065 546.028625,614.873230 545.399414,608.830566 
	C544.750549,602.598206 547.971436,597.460999 554.317932,594.782166 
	C557.888977,593.274841 561.661072,592.747314 565.527466,592.792603 
	C568.309021,592.825195 571.091187,592.798950 573.893372,592.798950 
	C573.327271,584.165955 567.577393,583.073730 552.605835,588.170044 
	C552.454773,588.100525 552.249878,588.072388 552.160278,587.955688 
	C546.826599,581.012085 547.283447,579.631165 555.309143,576.498474 
	C560.609314,574.429688 566.060791,574.188110 571.510559,574.921143 
	C580.131958,576.080750 586.138733,582.985535 586.289978,591.740356 
	C586.442200,600.549866 586.299622,609.364441 586.216614,618.632874 
M557.290771,608.098450 
	C558.509216,612.103821 561.797180,612.767090 565.221191,612.574646 
	C569.002869,612.362061 572.430115,610.972290 574.190918,607.259460 
	C575.996033,603.453064 574.606873,601.223694 570.361511,601.057373 
	C567.879089,600.960022 565.374146,601.055908 562.897766,601.273804 
	C559.273438,601.592834 556.983337,603.332642 557.290771,608.098450 
z"/>
<path fill="#000000" opacity="1.000000" stroke="none" 
	d="
M465.700867,611.588745 
	C463.202454,617.448120 461.172546,623.114136 458.449219,628.424438 
	C454.394592,636.330688 445.928436,639.155029 438.098755,635.642822 
	C436.335175,634.851746 433.820709,634.062317 435.385590,631.426025 
	C436.739777,629.144714 436.636475,624.698181 440.987183,625.844971 
	C444.231049,626.699951 446.772644,626.729980 449.046997,624.018982 
	C451.422302,621.187622 450.304138,618.508911 449.082184,615.664917 
	C444.159119,604.207031 439.311462,592.716553 434.456177,581.229614 
	C433.817566,579.718628 433.295959,578.158264 432.740051,576.673950 
	C439.559998,572.815430 444.299591,574.331726 446.958801,581.008362 
	C450.084229,588.855835 453.180695,596.714905 456.785126,605.820312 
	C460.153198,596.950378 463.071716,589.243164 466.006317,581.542053 
	C468.669800,574.552490 471.278992,573.430786 479.619415,576.170288 
	C475.025543,587.877014 470.442352,599.556641 465.700867,611.588745 
z"/>
<path fill="#000000" opacity="1.000000" stroke="none" 
	d="
M626.717041,588.395020 
	C622.973694,585.001831 619.076294,584.533569 614.879578,586.434387 
	C610.612366,588.367126 609.535400,592.209534 609.447144,596.352844 
	C609.301758,603.180481 609.279846,610.018616 609.498779,616.842957 
	C609.609314,620.288757 608.057556,621.327087 605.016602,621.062073 
	C602.089783,620.807068 598.001282,622.230408 597.953735,617.171082 
	C597.834656,604.508789 597.938843,591.844482 597.935425,579.180969 
	C597.934814,576.873962 598.734802,575.142883 601.278870,575.146912 
	C604.533142,575.152100 608.570312,573.500671 609.853210,579.025635 
	C614.072632,576.302856 618.337830,574.429504 623.407898,574.579346 
	C632.877075,574.859253 639.769592,580.754211 640.200134,590.208435 
	C640.609070,599.187988 640.258728,608.200439 640.334412,617.197632 
	C640.372986,621.780457 637.054932,620.924744 634.361145,621.031677 
	C631.394287,621.149475 628.589050,621.127747 628.674377,616.814087 
	C628.812805,609.818359 628.685791,602.817810 628.719238,595.819519 
	C628.731384,593.279663 628.574219,590.815979 626.717041,588.395020 
z"/>
</svg>