<svg version="1.1" id="Layer_1" xmlns="http://www.w3.org/2000/svg" xmlns:xlink="http://www.w3.org/1999/xlink" x="0px" y="0px"
	 width="100%" viewBox="0 0 816 816" enable-background="new 0 0 816 816" xml:space="preserve">
<path fill="#000000" opacity="1.000000" stroke="none" 
	d="
M367.915253,194.875824 
	C403.643036,172.967300 452.375946,175.960754 485.340607,201.414734 
	C503.226593,215.225586 515.485413,232.786026 522.482422,254.064438 
	C523.919495,258.434692 525.722229,260.064972 530.467468,259.969666 
	C554.206116,259.492889 574.799988,268.010101 591.199036,284.768372 
	C615.758850,309.866180 622.985291,339.998535 611.203064,373.180328 
	C599.808044,405.271576 575.790833,423.012512 542.276245,428.010498 
	C539.332031,428.449554 536.287598,428.284943 533.289673,428.285339 
	C462.125854,428.294830 390.962006,428.253510 319.798218,428.302490 
	C292.319092,428.321411 270.853577,416.514160 255.177094,394.542206 
	C220.755508,346.297394 252.605759,277.209198 311.542236,271.849060 
	C315.304779,271.506866 317.044739,270.299469 317.745117,266.398010 
	C323.382996,234.992966 340.431000,211.464951 367.915253,194.875824 
M311.403931,299.782135 
	C310.427979,299.997101 309.446991,300.191528 308.476837,300.430054 
	C284.371613,306.356262 267.850555,326.827728 268.428375,350.048096 
	C269.144165,378.814178 291.777100,400.821777 320.763855,400.833282 
	C391.582153,400.861420 462.401062,401.012207 533.218384,400.750793 
	C554.748474,400.671326 571.368469,390.811127 581.895935,371.924500 
	C592.650696,352.630127 591.970459,332.832336 580.214966,314.512604 
	C565.968079,292.310150 544.499573,284.753510 518.781250,288.330688 
	C507.022339,289.966187 500.596405,285.200287 498.698700,273.344177 
	C493.652283,241.816422 471.075775,216.845505 439.315430,209.695847 
	C406.944305,202.408691 380.207092,213.288208 359.324951,238.443939 
	C348.892792,251.011078 344.219940,266.014008 344.131134,282.440155 
	C344.068634,294.004700 337.352478,300.166473 326.222809,299.381927 
	C321.567139,299.053711 316.901794,298.963898 311.403931,299.782135 
z"/>
<path fill="#000000" opacity="1.000000" stroke="none" 
	d="
M459.924133,561.781372 
	C458.763123,562.691589 457.862183,563.385132 457.045868,564.013489 
	C457.315369,566.001709 458.899384,566.121338 460.014191,566.564514 
	C472.449799,571.508179 478.798920,581.163940 478.929962,594.000549 
	C479.069885,607.707214 471.988434,617.655640 459.334106,623.345032 
	C451.911774,626.682129 444.025360,627.996582 435.982697,628.058899 
	C418.484436,628.194641 400.984192,628.103821 383.484863,628.064148 
	C377.185547,628.049866 376.813660,627.694641 376.811127,621.681824 
	C376.795929,585.849670 376.889496,550.017090 376.720886,514.185730 
	C376.697388,509.193695 378.147736,507.570343 383.257843,507.648224 
	C400.419281,507.909851 417.588104,507.655212 434.754120,507.654663 
	C444.660553,507.654327 453.956787,509.740265 461.809021,516.222412 
	C477.102936,528.847778 474.489838,552.674866 459.924133,561.781372 
M414.507385,576.098938 
	C411.011353,576.096680 407.514618,576.137634 404.019562,576.078125 
	C401.313934,576.032104 400.077972,577.247559 400.080994,579.976379 
	C400.089691,587.800598 400.064636,595.625610 399.950470,603.448792 
	C399.904358,606.609375 401.225189,607.944153 404.424103,607.900696 
	C414.411041,607.764954 424.403809,607.920349 434.386292,607.657532 
	C438.517517,607.548767 442.654938,606.855408 446.555267,605.195068 
	C451.651001,603.025940 454.337494,599.279236 454.771820,593.730225 
	C455.255005,587.557495 453.488220,582.513977 447.950409,579.302673 
	C444.280243,577.174438 440.197937,576.312378 435.980835,576.250122 
	C429.156342,576.149292 422.330505,576.143982 414.507385,576.098938 
M430.233246,556.875977 
	C431.065674,556.851868 431.903748,556.881653 432.729675,556.795471 
	C443.300476,555.691833 448.819611,550.566528 448.787537,541.906067 
	C448.755493,533.256958 443.825043,529.096436 432.746033,527.946289 
	C423.264923,526.962036 413.766846,527.681396 404.286560,527.293213 
	C400.941193,527.156311 399.916992,528.721558 399.970581,531.806519 
	C400.089172,538.634766 400.134827,545.467407 400.024933,552.295288 
	C399.969482,555.742737 401.404266,557.023499 404.803558,556.962463 
	C412.963867,556.815979 421.128204,556.891724 430.233246,556.875977 
z"/>
<path fill="#000000" opacity="1.000000" stroke="none" 
	d="
M78.376198,563.623901 
	C63.400356,547.763428 67.364349,522.977356 86.297264,512.186523 
	C104.805054,501.638031 137.825806,505.162018 153.762039,519.342102 
	C155.404449,520.803528 156.584152,522.224548 155.216537,524.454956 
	C152.186356,529.396729 149.151749,534.335815 146.262650,539.041931 
	C143.856720,539.533752 142.882889,537.911804 141.561691,537.015930 
	C130.890427,529.779541 119.292595,525.894104 106.244530,527.191650 
	C99.542915,527.858154 94.421547,531.855774 93.433990,537.241150 
	C92.379784,542.989990 95.335510,547.788513 102.029884,550.825439 
	C109.486229,554.208069 117.375267,556.317200 125.240776,558.499390 
	C132.961365,560.641296 140.629944,563.077698 147.180237,567.861084 
	C166.108124,581.683289 163.875595,610.251160 142.838745,622.817200 
	C131.334305,629.689148 118.723953,630.910339 105.680229,629.103394 
	C91.034096,627.074524 77.679916,622.078369 66.223419,612.400635 
	C63.445747,610.054199 62.856480,608.464294 65.567940,605.631958 
	C68.547615,602.519470 71.132278,598.997009 73.643875,595.478149 
	C75.726761,592.559875 77.356628,592.651794 79.994530,595.016541 
	C90.497879,604.432190 103.085930,608.561218 117.049026,608.854614 
	C121.294556,608.943787 125.345825,607.897888 129.153091,606.181213 
	C134.006958,603.992554 136.508148,599.901855 136.588791,594.680176 
	C136.663208,589.861389 133.841370,586.547791 129.631073,584.578613 
	C120.540016,580.326721 110.658875,578.413635 101.209213,575.212708 
	C93.151146,572.483093 85.063065,569.838562 78.376198,563.623901 
z"/>
<path fill="#000000" opacity="1.000000" stroke="none" 
	d="
M202.382797,518.024292 
	C202.382919,536.815674 202.382919,555.111877 202.382919,573.539978 
	C204.856094,573.453430 205.653473,571.561218 206.840256,570.347351 
	C216.508865,560.457886 226.158417,550.548523 235.697891,540.534790 
	C238.065338,538.049622 240.676605,536.824524 244.086777,537.000244 
	C249.958420,537.302795 255.923706,536.383179 263.008392,537.989502 
	C258.452026,543.191833 254.750183,547.577087 250.875595,551.804016 
	C245.472427,557.698608 240.111374,563.650085 234.396194,569.233154 
	C231.180878,572.374084 230.811447,574.815247 233.486511,578.598389 
	C243.586578,592.882202 253.396210,607.371826 263.259308,621.822083 
	C264.342499,623.409058 265.906219,624.863281 265.674042,627.717346 
	C258.013153,628.560120 250.301849,628.497192 242.608963,627.756470 
	C240.717468,627.574280 239.927811,625.415771 238.876892,623.929138 
	C231.568100,613.589600 224.257721,603.251160 216.941620,592.916748 
	C216.269760,591.967712 215.619751,590.976318 213.811783,590.462891 
	C208.089279,595.822571 200.726898,600.188110 202.228485,610.407776 
	C202.875320,614.809998 202.239182,619.392151 202.310455,623.890564 
	C202.356979,626.826050 201.067368,628.193420 198.136841,628.163818 
	C193.470901,628.116638 188.803635,628.086121 184.138153,628.145020 
	C180.887802,628.186035 179.741379,626.532593 179.779434,623.474976 
	C179.860306,616.976135 179.817123,610.475708 179.822708,603.975952 
	C179.848602,573.810181 179.854126,543.644348 179.912964,513.478638 
	C179.927872,505.839630 180.040924,505.809753 187.797440,505.732056 
	C190.630356,505.703674 193.525436,506.006622 196.282242,505.526855 
	C201.411652,504.634247 202.913895,506.844574 202.423920,511.532959 
	C202.217148,513.511475 202.385071,515.529236 202.382797,518.024292 
z"/>
<path fill="#000000" opacity="1.000000" stroke="none" 
	d="
M707.006592,604.999939 
	C707.015808,574.677002 707.008606,544.853943 707.043945,515.030945 
	C707.055054,505.714630 707.107727,505.715088 716.166016,505.638428 
	C718.831604,505.615875 721.517212,505.787262 724.158142,505.519562 
	C728.080750,505.121948 729.419250,506.602264 729.384033,510.579498 
	C729.217041,529.405029 729.276245,548.232849 729.322937,567.059692 
	C729.327698,568.966858 728.756104,571.019043 729.368164,571.911804 
	C737.074036,564.760925 745.197205,557.884521 752.544189,550.260071 
	C765.802429,536.500977 765.608826,536.308777 784.357788,537.081299 
	C785.822083,537.141602 787.409912,536.966370 788.437805,538.439819 
	C788.696716,540.451538 787.077820,541.354797 785.973877,542.517151 
	C777.141052,551.816895 768.432495,561.242798 759.348145,570.291016 
	C756.274780,573.352234 756.433228,575.598328 758.730713,578.798767 
	C768.833069,592.871338 778.808411,607.035278 788.803833,621.184387 
	C790.022766,622.909851 791.603699,624.500916 791.653625,627.434143 
	C787.150391,628.904663 782.468262,627.601746 777.992249,628.212341 
	C770.699158,629.207153 766.155640,626.584106 762.271667,620.063049 
	C756.665710,610.650757 749.692139,602.052429 743.288147,593.116882 
	C742.530151,592.059204 741.901184,590.818909 740.366577,590.494568 
	C733.350952,596.426025 727.063416,602.636597 729.069031,613.107483 
	C729.407471,614.874573 729.105957,616.763611 729.106140,618.596313 
	C729.106995,628.208374 729.107239,628.258606 719.246887,628.173828 
	C705.117065,628.052307 706.912537,629.661743 706.953491,615.496887 
	C706.963135,612.164551 706.988525,608.832214 707.006592,604.999939 
z"/>
<path fill="#000000" opacity="1.000000" stroke="none" 
	d="
M574.420776,580.003784 
	C574.419983,594.495911 574.284119,608.490906 574.498413,622.480591 
	C574.565552,626.863037 573.053162,628.622864 568.720703,628.215149 
	C566.573547,628.013062 564.392700,628.177063 562.227234,628.160034 
	C553.959045,628.094788 553.959045,628.092468 553.354248,619.025452 
	C551.511719,620.332764 549.996948,621.434204 548.455566,622.497009 
	C537.485352,630.060852 525.668152,632.276001 512.869934,628.035522 
	C501.634216,624.312744 493.720795,614.083069 492.929230,602.351074 
	C492.246246,592.227661 498.750610,582.332336 509.473206,577.201111 
	C516.861694,573.665405 524.703857,572.614624 532.810791,572.828003 
	C537.804993,572.959473 542.807495,572.778748 547.801636,572.912048 
	C551.325562,573.006042 552.144104,571.377930 551.445740,568.232178 
	C549.957764,561.529968 545.059509,557.116394 537.758240,556.288940 
	C527.884460,555.169983 518.475098,556.404541 510.049530,562.188416 
	C509.504639,562.562500 508.907349,562.873657 508.301880,563.140015 
	C508.018524,563.264709 507.657471,563.212769 506.669403,563.298096 
	C504.315796,558.902466 501.802094,554.279419 499.361938,549.617859 
	C498.287720,547.565796 499.741516,546.523438 501.243134,545.669434 
	C517.759399,536.276794 535.063293,532.530701 553.463501,539.283691 
	C567.128906,544.299072 572.785522,555.345825 574.280396,569.016724 
	C574.658691,572.476501 574.391479,576.006775 574.420776,580.003784 
M526.411621,588.546326 
	C524.845154,589.091187 523.218811,589.507202 521.722290,590.202576 
	C514.272217,593.664734 512.679443,602.967102 519.023499,608.206726 
	C526.090698,614.043518 534.147644,613.358398 542.057495,609.930725 
	C549.705505,606.616516 552.842590,601.202759 552.752991,593.076294 
	C552.716553,589.765503 551.697632,588.128296 548.186462,588.205627 
	C541.211365,588.359253 534.232422,588.336060 526.411621,588.546326 
z"/>
<path fill="#000000" opacity="1.000000" stroke="none" 
	d="
M317.661560,645.550903 
	C308.479675,661.046753 290.822113,663.579529 275.314758,656.277649 
	C272.149750,654.787354 270.939209,652.927307 273.039612,649.676270 
	C274.029297,648.144470 274.744110,646.436462 275.604401,644.819458 
	C279.419769,637.648438 279.382416,637.832458 286.964600,639.496948 
	C291.605743,640.515869 296.470581,640.695190 299.759338,636.290283 
	C303.078735,631.844360 305.376984,627.594910 302.591431,621.296692 
	C291.146698,595.419861 280.306915,569.275391 269.267822,543.219543 
	C268.630463,541.715149 267.663452,540.266541 268.092041,537.818115 
	C275.232666,536.500244 282.609161,536.754333 289.948029,537.514160 
	C291.909821,537.717285 292.233124,540.189880 292.887421,541.863403 
	C299.554565,558.916077 306.185883,575.982666 312.853912,593.034973 
	C313.573914,594.876282 314.462128,596.651794 315.793518,599.619690 
	C318.418640,592.816833 320.700439,587.044006 322.877869,581.232178 
	C327.666229,568.451599 332.505676,555.688354 337.095215,542.836243 
	C338.455933,539.025879 340.554504,537.001648 344.679169,537.165710 
	C350.057709,537.379639 355.533783,536.265198 360.502686,537.796204 
	C361.277618,539.649963 360.590607,540.668579 360.164886,541.731506 
	C348.034515,572.015991 335.931580,602.311646 323.739471,632.571289 
	C322.001495,636.884827 319.830719,641.024048 317.661560,645.550903 
z"/>
<path fill="#000000" opacity="1.000000" stroke="none" 
	d="
M658.554077,566.725098 
	C653.796448,558.382751 645.131470,555.114502 635.066650,557.552551 
	C626.393677,559.653381 621.203979,566.247070 621.132996,575.810242 
	C621.020508,590.966675 621.144287,606.124634 621.126404,621.281982 
	C621.118774,627.772522 620.815063,628.061890 614.387207,628.142151 
	C610.723633,628.187866 607.056030,628.028748 603.395264,628.135132 
	C599.950195,628.235291 598.707886,626.661987 598.717468,623.301941 
	C598.794800,596.318726 598.813171,569.335205 598.751160,542.351990 
	C598.743286,538.912781 600.066711,537.527893 603.481201,537.651184 
	C606.804504,537.771179 610.144409,537.657349 613.468445,537.482361 
	C619.560669,537.161743 619.944946,537.467041 620.207031,543.586914 
	C620.248657,544.558655 620.375488,545.526672 620.463074,546.497986 
	C622.320557,546.873352 622.921692,545.388489 623.886841,544.625977 
	C635.244080,535.653625 647.905396,533.185669 661.425537,538.233948 
	C675.354614,543.434937 681.782898,554.716492 682.263000,568.926880 
	C682.886597,587.383789 682.415283,605.876465 682.520752,624.353149 
	C682.537231,627.240662 681.289368,628.199951 678.633179,628.160400 
	C674.303467,628.095886 669.961365,627.945374 665.644653,628.189026 
	C661.323486,628.432922 659.742920,626.761536 659.803528,622.403564 
	C660.011963,607.415344 659.960876,592.423157 659.949158,577.432495 
	C659.946411,573.949158 660.120239,570.415283 658.554077,566.725098 
z"/>
</svg>